<svg version="1" xmlns="http://www.w3.org/2000/svg" width="346.667" height="346.667" viewBox="0 0 260.000000 260.000000"><path d="M0 130v130h260V0H0v130zm150.7-61.1c8.7 5 13.3 15.6 13.3 30.8v8.3h-16v-5.3c0-7.9-2-16.4-4.5-19.1-2.7-3-8.6-4.1-12.2-2.4-7.4 3.7-8.7 12.1-8.1 54.8.4 28.3.6 30.8 2.5 35.2 2.5 5.6 4.6 6.8 11.3 6.8 9.6 0 12-5.1 12-25.8V139h-15v-15h31v67h-7c-6.9 0-7 0-7-2.7v-2.6l-2.3 2.1c-5.4 5.1-17.8 6.9-25.5 3.6-4.6-1.9-9.8-6.8-12.2-11.4-4.1-8.1-4.5-13-4.5-51 0-35.4.1-36.7 2.3-43.9 1.9-5.8 3.3-8.3 7-12 6-5.9 9.5-7.1 21.2-6.8 7.9.2 10.2.7 13.7 2.6zM79.4 71c5.5 2.8 9 6.6 12 13 2 4.3 2.1 6.4 2.4 42.5.3 33.1.1 38.8-1.3 44.3-2.4 8.6-6.1 13.4-13.2 16.8-5.7 2.8-6.3 2.9-24.5 3.2l-18.8.4V67.8l19.3.4c18.1.3 19.5.4 24.1 2.8zM235 75v7h-24v109h-17V82h-23V68h64v7z"/><path d="M53 129.5v47.8l8.1-.6c9.4-.6 12.7-2.4 14.6-7.8 1.7-4.9 1.6-74.1-.1-78.8-2-5.6-5.5-7.5-14.7-8l-7.9-.3v47.7z"/></svg>